<mxfile host="app.diagrams.net" modified="2023-05-23T17:40:22.087Z" agent="Mozilla/5.0 (Windows NT 10.0; Win64; x64) AppleWebKit/537.36 (KHTML, like Gecko) Chrome/113.0.0.0 Safari/537.36" etag="PAqnJltHRSKUWt0Bd_jR" version="21.3.2" type="device">
  <diagram name="Page-1" id="buxyr23kGz6iCyLDdrOF">
    <mxGraphModel dx="1042" dy="1078" grid="1" gridSize="10" guides="1" tooltips="1" connect="1" arrows="1" fold="1" page="1" pageScale="1" pageWidth="850" pageHeight="1100" math="0" shadow="0">
      <root>
        <mxCell id="0" />
        <mxCell id="1" parent="0" />
        <mxCell id="wsY36sJGC1IxCN0DI9le-7" style="edgeStyle=orthogonalEdgeStyle;rounded=0;orthogonalLoop=1;jettySize=auto;html=1;exitX=0.5;exitY=1;exitDx=0;exitDy=0;entryX=0;entryY=0.5;entryDx=0;entryDy=0;" edge="1" parent="1" source="wsY36sJGC1IxCN0DI9le-1" target="wsY36sJGC1IxCN0DI9le-2">
          <mxGeometry relative="1" as="geometry" />
        </mxCell>
        <mxCell id="wsY36sJGC1IxCN0DI9le-1" value="Decide which programming language to use, Based on the needs of the database for example is performance key or develoment speed. (1 hour)" style="rounded=0;whiteSpace=wrap;html=1;" vertex="1" parent="1">
          <mxGeometry y="20" width="290" height="80" as="geometry" />
        </mxCell>
        <mxCell id="wsY36sJGC1IxCN0DI9le-8" style="edgeStyle=orthogonalEdgeStyle;rounded=0;orthogonalLoop=1;jettySize=auto;html=1;exitX=0.5;exitY=1;exitDx=0;exitDy=0;entryX=0;entryY=0.5;entryDx=0;entryDy=0;" edge="1" parent="1" source="wsY36sJGC1IxCN0DI9le-2" target="wsY36sJGC1IxCN0DI9le-3">
          <mxGeometry relative="1" as="geometry" />
        </mxCell>
        <mxCell id="wsY36sJGC1IxCN0DI9le-2" value="Create a coding environment and repository for group members to work in. Once the workspace is created for everyone, all members are set to contribute to the codebase. (8 hours)" style="rounded=0;whiteSpace=wrap;html=1;" vertex="1" parent="1">
          <mxGeometry x="220" y="150" width="290" height="80" as="geometry" />
        </mxCell>
        <mxCell id="wsY36sJGC1IxCN0DI9le-9" style="edgeStyle=orthogonalEdgeStyle;rounded=0;orthogonalLoop=1;jettySize=auto;html=1;exitX=0.5;exitY=1;exitDx=0;exitDy=0;entryX=0;entryY=0.5;entryDx=0;entryDy=0;" edge="1" parent="1" source="wsY36sJGC1IxCN0DI9le-3" target="wsY36sJGC1IxCN0DI9le-4">
          <mxGeometry relative="1" as="geometry" />
        </mxCell>
        <mxCell id="wsY36sJGC1IxCN0DI9le-3" value="Create a Block Diagram for how the database should operate. This should be detailed enough to allow straight up coding after this step is complete. (8 hours)" style="rounded=0;whiteSpace=wrap;html=1;" vertex="1" parent="1">
          <mxGeometry x="400" y="270" width="290" height="80" as="geometry" />
        </mxCell>
        <mxCell id="wsY36sJGC1IxCN0DI9le-10" style="edgeStyle=orthogonalEdgeStyle;rounded=0;orthogonalLoop=1;jettySize=auto;html=1;exitX=0.25;exitY=1;exitDx=0;exitDy=0;entryX=0;entryY=0.5;entryDx=0;entryDy=0;" edge="1" parent="1" source="wsY36sJGC1IxCN0DI9le-4" target="wsY36sJGC1IxCN0DI9le-5">
          <mxGeometry relative="1" as="geometry" />
        </mxCell>
        <mxCell id="wsY36sJGC1IxCN0DI9le-4" value="Implement the processes mentioned in the block diagram" style="rounded=0;whiteSpace=wrap;html=1;" vertex="1" parent="1">
          <mxGeometry x="590" y="380" width="290" height="80" as="geometry" />
        </mxCell>
        <mxCell id="wsY36sJGC1IxCN0DI9le-11" style="edgeStyle=orthogonalEdgeStyle;rounded=0;orthogonalLoop=1;jettySize=auto;html=1;exitX=0.25;exitY=1;exitDx=0;exitDy=0;entryX=0;entryY=0.5;entryDx=0;entryDy=0;" edge="1" parent="1" source="wsY36sJGC1IxCN0DI9le-5" target="wsY36sJGC1IxCN0DI9le-6">
          <mxGeometry relative="1" as="geometry" />
        </mxCell>
        <mxCell id="wsY36sJGC1IxCN0DI9le-5" value="Test and Debug code with fake data to ensure all functions are operational (4 weeks)" style="rounded=0;whiteSpace=wrap;html=1;" vertex="1" parent="1">
          <mxGeometry x="710" y="510" width="290" height="80" as="geometry" />
        </mxCell>
        <mxCell id="wsY36sJGC1IxCN0DI9le-12" style="edgeStyle=orthogonalEdgeStyle;rounded=0;orthogonalLoop=1;jettySize=auto;html=1;exitX=0.5;exitY=1;exitDx=0;exitDy=0;entryX=0.25;entryY=1;entryDx=0;entryDy=0;" edge="1" parent="1" source="wsY36sJGC1IxCN0DI9le-6" target="wsY36sJGC1IxCN0DI9le-1">
          <mxGeometry relative="1" as="geometry">
            <mxPoint x="370" y="550" as="targetPoint" />
          </mxGeometry>
        </mxCell>
        <mxCell id="wsY36sJGC1IxCN0DI9le-6" value="Upgrade &amp;amp; Maintain database as Schools needs grow. (TBA)" style="rounded=0;whiteSpace=wrap;html=1;" vertex="1" parent="1">
          <mxGeometry x="860" y="630" width="290" height="80" as="geometry" />
        </mxCell>
      </root>
    </mxGraphModel>
  </diagram>
</mxfile>
